{
  "asset": {
    "version": "2.0",
    "generator": "THREE.GLTFExporter"
  },
  "scenes": [
    {
      "nodes": [
        1
      ],
      "name": "AuxScene"
    }
  ],
  "scene": 0,
  "nodes": [
    {
      "name": "Human_BaseMesh",
      "mesh": 0
    },
    {
      "children": [
        0
      ]
    }
  ],
  "meshes": [
    {
      "primitives": [
        {
          "mode": 4,
          "attributes": {
            "POSITION": 0,
            "NORMAL": 1,
            "TEXCOORD_0": 2
          },
          "material": 0,
          "indices": 3
        }
      ]
    }
  ],
  "accessors": [
    {
      "bufferView": 0,
      "componentType": 5126,
      "count": 20304,
      "max": [
        34.799617767333984,
        185.6974334716797,
        47.41494369506836
      ],
      "min": [
        -31.993057250976562,
        -0.6321790218353271,
        -39.89280700683594
      ],
      "type": "VEC3"
    },
    {
      "bufferView": 1,
      "componentType": 5126,
      "count": 20304,
      "max": [
        0.9999290108680725,
        0.9999939799308777,
        0.9998270273208618
      ],
      "min": [
        -0.9999229907989502,
        -0.9999669790267944,
        -0.9994649887084961
      ],
      "type": "VEC3"
    },
    {
      "bufferView": 2,
      "componentType": 5126,
      "count": 20304,
      "max": [
        0.9991739988327026,
        0.9997950196266174
      ],
      "min": [
        0.00020500000391621143,
        0.00020500000391621143
      ],
      "type": "VEC2"
    },
    {
      "bufferView": 3,
      "componentType": 5123,
      "count": 20304,
      "max": [
        20303
      ],
      "min": [
        0
      ],
      "type": "SCALAR"
    }
  ],
  "bufferViews": [
    {
      "buffer": 0,
      "byteOffset": 0,
      "byteLength": 243648,
      "target": 34962,
      "byteStride": 12
    },
    {
      "buffer": 0,
      "byteOffset": 243648,
      "byteLength": 243648,
      "target": 34962,
      "byteStride": 12
    },
    {
      "buffer": 0,
      "byteOffset": 487296,
      "byteLength": 162432,
      "target": 34962,
      "byteStride": 8
    },
    {
      "buffer": 0,
      "byteOffset": 649728,
      "byteLength": 40608,
      "target": 34963
    }
  ],
  "buffers": [
    {
      "byteLength": 690336,
      "uri": "data:application/octet-stream;base64,"
    }
  ],
  "materials": [
    {
      "pbrMetallicRoughness": {
        "metallicFactor": 0.5,
        "roughnessFactor": 0.5
      },
      "name": "Human_BaseMeshSG"
    }
  ]
}