{
    "accessors": [
        {
            "bufferView": 0,
            "byteOffset": 0,
            "componentType": 5126,
            "count": 201,
            "max": [
                8.33333301544189
            ],
            "min": [
                0.0
            ],
            "type": "SCALAR"
        },
        {
            "bufferView": 1,
            "byteOffset": 0,
            "componentType": 5126,
            "count": 201,
            "type": "VEC3"
        },
        {
            "bufferView": 2,
            "byteOffset": 0,
            "componentType": 5126,
            "count": 201,
            "type": "VEC4"
        },
        {
            "bufferView": 3,
            "byteOffset": 0,
            "componentType": 5123,
            "count": 288,
            "type": "SCALAR"
        },
        {
            "bufferView": 4,
            "byteOffset": 0,
            "componentType": 5126,
            "count": 61,
            "max": [
                1.0,
                0.0,
                1.0
            ],
            "min": [
                -1.0,
                0.0,
                -1.0
            ],
            "type": "VEC3"
        },
        {
            "bufferView": 5,
            "byteOffset": 0,
            "componentType": 5126,
            "count": 61,
            "type": "VEC3"
        },
        {
            "bufferView": 6,
            "byteOffset": 0,
            "componentType": 5126,
            "count": 61,
            "type": "VEC2"
        },
        {
            "bufferView": 7,
            "byteOffset": 0,
            "componentType": 5123,
            "count": 9930,
            "type": "SCALAR"
        },
        {
            "bufferView": 8,
            "byteOffset": 0,
            "componentType": 5126,
            "count": 2490,
            "max": [
                247.719924926758,
                59.123291015625,
                90.3339996337891
            ],
            "min": [
                -193.999099731445,
                -131.031402587891,
                2.07599997520447
            ],
            "type": "VEC3"
        },
        {
            "bufferView": 9,
            "byteOffset": 0,
            "componentType": 5126,
            "count": 2490,
            "type": "VEC3"
        },
        {
            "bufferView": 10,
            "byteOffset": 0,
            "componentType": 5126,
            "count": 2490,
            "type": "VEC2"
        },
        {
            "bufferView": 11,
            "byteOffset": 0,
            "componentType": 5123,
            "count": 28356,
            "type": "SCALAR"
        },
        {
            "bufferView": 12,
            "byteOffset": 0,
            "componentType": 5126,
            "count": 6465,
            "max": [
                242.212005615234,
                48.0150985717773,
                78.2976989746094
            ],
            "min": [
                -190.298706054688,
                -119.843299865723,
                5.31020021438599
            ],
            "type": "VEC3"
        },
        {
            "bufferView": 13,
            "byteOffset": 0,
            "componentType": 5126,
            "count": 6465,
            "type": "VEC3"
        },
        {
            "bufferView": 14,
            "byteOffset": 0,
            "componentType": 5126,
            "count": 6465,
            "type": "VEC2"
        },
        {
            "bufferView": 15,
            "byteOffset": 0,
            "componentType": 5123,
            "count": 20316,
            "type": "SCALAR"
        },
        {
            "bufferView": 16,
            "byteOffset": 0,
            "componentType": 5126,
            "count": 4293,
            "max": [
                247.58479309082,
                50.1143989562988,
                86.9560928344727
            ],
            "min": [
                -184.593704223633,
                -122.022521972656,
                59.6780014038086
            ],
            "type": "VEC3"
        },
        {
            "bufferView": 17,
            "byteOffset": 0,
            "componentType": 5126,
            "count": 4293,
            "type": "VEC3"
        },
        {
            "bufferView": 18,
            "byteOffset": 0,
            "componentType": 5126,
            "count": 4293,
            "type": "VEC2"
        }
    ],
    "animations": [
        {
            "channels": [
                {
                    "sampler": 0,
                    "target": {
                        "node": 1,
                        "path": "translation"
                    }
                },
                {
                    "sampler": 1,
                    "target": {
                        "node": 1,
                        "path": "rotation"
                    }
                }
            ],
            "name": "Take 001",
            "samplers": [
                {
                    "input": 0,
                    "interpolation": "LINEAR",
                    "output": 1
                },
                {
                    "input": 0,
                    "interpolation": "LINEAR",
                    "output": 2
                }
            ]
        }
    ],
    "asset": {
        "generator": "FBX2glTF",
        "version": "2.0"
    },
    "bufferViews": [
        {
            "buffer": 0,
            "byteLength": 804,
            "byteOffset": 0
        },
        {
            "buffer": 0,
            "byteLength": 2412,
            "byteOffset": 804
        },
        {
            "buffer": 0,
            "byteLength": 3216,
            "byteOffset": 3216
        },
        {
            "buffer": 0,
            "byteLength": 576,
            "byteOffset": 6432,
            "target": 34963
        },
        {
            "buffer": 0,
            "byteLength": 732,
            "byteOffset": 7008,
            "target": 34962
        },
        {
            "buffer": 0,
            "byteLength": 732,
            "byteOffset": 7740,
            "target": 34962
        },
        {
            "buffer": 0,
            "byteLength": 488,
            "byteOffset": 8472,
            "target": 34962
        },
        {
            "buffer": 0,
            "byteLength": 19860,
            "byteOffset": 8960,
            "target": 34963
        },
        {
            "buffer": 0,
            "byteLength": 29880,
            "byteOffset": 28820,
            "target": 34962
        },
        {
            "buffer": 0,
            "byteLength": 29880,
            "byteOffset": 58700,
            "target": 34962
        },
        {
            "buffer": 0,
            "byteLength": 19920,
            "byteOffset": 88580,
            "target": 34962
        },
        {
            "buffer": 0,
            "byteLength": 56712,
            "byteOffset": 108500,
            "target": 34963
        },
        {
            "buffer": 0,
            "byteLength": 77580,
            "byteOffset": 165212,
            "target": 34962
        },
        {
            "buffer": 0,
            "byteLength": 77580,
            "byteOffset": 242792,
            "target": 34962
        },
        {
            "buffer": 0,
            "byteLength": 51720,
            "byteOffset": 320372,
            "target": 34962
        },
        {
            "buffer": 0,
            "byteLength": 40632,
            "byteOffset": 372092,
            "target": 34963
        },
        {
            "buffer": 0,
            "byteLength": 51516,
            "byteOffset": 412724,
            "target": 34962
        },
        {
            "buffer": 0,
            "byteLength": 51516,
            "byteOffset": 464240,
            "target": 34962
        },
        {
            "buffer": 0,
            "byteLength": 34344,
            "byteOffset": 515756,
            "target": 34962
        }
    ],
    "buffers": [
        {
            "byteLength": 550100,
            "uri": "buffer.bin"
        }
    ],
    "materials": [
        {
            "alphaMode": "OPAQUE",
            "emissiveFactor": [
                1.0,
                1.0,
                1.0
            ],
            "name": "StingrayPBS1",
            "pbrMetallicRoughness": {
                "baseColorFactor": [
                    1.0,
                    1.0,
                    1.0,
                    0.0
                ],
                "metallicFactor": 0.100000001490116,
                "roughnessFactor": 0.400000005960464
            }
        }
    ],
    "meshes": [
        {
            "name": "disk",
            "primitives": [
                {
                    "attributes": {
                        "NORMAL": 5,
                        "POSITION": 4,
                        "TEXCOORD_0": 6
                    },
                    "indices": 3,
                    "material": 0,
                    "mode": 4
                }
            ]
        },
        {
            "name": "broun_wood",
            "primitives": [
                {
                    "attributes": {
                        "NORMAL": 9,
                        "POSITION": 8,
                        "TEXCOORD_0": 10
                    },
                    "indices": 7,
                    "material": 0,
                    "mode": 4
                }
            ]
        },
        {
            "name": "white_wood",
            "primitives": [
                {
                    "attributes": {
                        "NORMAL": 13,
                        "POSITION": 12,
                        "TEXCOORD_0": 14
                    },
                    "indices": 11,
                    "material": 0,
                    "mode": 4
                }
            ]
        },
        {
            "name": "metall",
            "primitives": [
                {
                    "attributes": {
                        "NORMAL": 17,
                        "POSITION": 16,
                        "TEXCOORD_0": 18
                    },
                    "indices": 15,
                    "material": 0,
                    "mode": 4
                }
            ]
        }
    ],
    "nodes": [
        {
            "children": [
                1
            ],
            "name": "RootNode",
            "rotation": [
                0.0,
                0.0,
                0.0,
                1.0
            ],
            "scale": [
                1.0,
                1.0,
                1.0
            ],
            "translation": [
                0.0,
                0.0,
                0.0
            ]
        },
        {
            "children": [
                2
            ],
            "mesh": 0,
            "name": "disk",
            "rotation": [
                0.0,
                0.0,
                0.0474687553942204,
                0.998872697353363
            ],
            "scale": [
                5.0,
                5.0,
                5.0
            ],
            "translation": [
                -0.0862069875001907,
                -0.00409675668925047,
                0.0
            ]
        },
        {
            "children": [
                3,
                4,
                5
            ],
            "name": "Dinghy_Wooden_Boat",
            "rotation": [
                -0.70710676908493,
                -0.0,
                0.0,
                0.70710676908493
            ],
            "scale": [
                0.0020000000949949,
                0.0020000000949949,
                0.0020000000949949
            ],
            "translation": [
                0.00913679506629705,
                -0.0618111975491047,
                0.05274773016572
            ]
        },
        {
            "mesh": 1,
            "name": "broun_wood",
            "rotation": [
                -0.0,
                -0.0,
                -8.71765069504536e-34,
                1.0
            ],
            "scale": [
                1.0,
                1.0,
                1.0
            ],
            "translation": [
                2.98168182373047,
                35.9540557861328,
                -1.20499801635742
            ]
        },
        {
            "mesh": 2,
            "name": "white_wood",
            "rotation": [
                -0.0,
                -0.0,
                -8.71765069504536e-34,
                1.0
            ],
            "scale": [
                1.0,
                1.0,
                1.0
            ],
            "translation": [
                2.98168182373047,
                35.9540557861328,
                -1.20499801635742
            ]
        },
        {
            "mesh": 3,
            "name": "metall",
            "rotation": [
                -0.0,
                -0.0,
                -8.71765069504536e-34,
                1.0
            ],
            "scale": [
                1.0,
                1.0,
                1.0
            ],
            "translation": [
                2.98168182373047,
                35.9540557861328,
                -1.20499801635742
            ]
        }
    ],
    "samplers": [
        {}
    ],
    "scene": 0,
    "scenes": [
        {
            "name": "Root Scene",
            "nodes": [
                0
            ]
        }
    ]
}